# xmcd
#
# Track frame offsets:
# 150
# 11688
# 23613
# 35013
# 49263
# 64263
# 75063
# 84588
# 98013
# 109188
# 124788
# 145488
# 157113
# 167978
#
# Disc length: 2359 seconds
#
# Revision: 0
# Processed by: cddbd v1.5.1PL0 Copyright (c) Steve Scherf et al.
# Submitted via: Audion 3.0.2 (http://www.panic.com/audion/)
#
DISCID=b309350e
DTITLE=Moneymakerme - Bluesbrothercastro
DYEAR=1900
DGENRE=
TTITLE0=loaded gun
TTITLE1=modern day hilarious money maker me
TTITLE2=welcome to my rock and roll
TTITLE3=drunken boy
TTITLE4=dress
TTITLE5=want to
TTITLE6=satisfy yourself
TTITLE7=more
TTITLE8=good enough
TTITLE9=little shit
TTITLE10=radio lovers
TTITLE11=solid gold
TTITLE12=flirt
TTITLE13=peso cubano
EXTD=
EXTT0=
EXTT1=
EXTT2=
EXTT3=
EXTT4=
EXTT5=
EXTT6=
EXTT7=
EXTT8=
EXTT9=
EXTT10=
EXTT11=
EXTT12=
EXTT13=
PLAYORDER=
